<?xml version="1.0" standalone="no"?>
<!DOCTYPE svg PUBLIC "-//W3C//DTD SVG 20010904//EN"
 "http://www.w3.org/TR/2001/REC-SVG-20010904/DTD/svg10.dtd">
<svg version="1.0" xmlns="http://www.w3.org/2000/svg"
 width="700.000000pt" height="700.000000pt" viewBox="0 0 700.000000 700.000000"
 preserveAspectRatio="xMidYMid meet">
<metadata>
Created by potrace 1.11, written by Peter Selinger 2001-2013
</metadata>
<g transform="translate(0.000000,700.000000) scale(0.100000,-0.100000)"
fill="#000000" stroke="none">
<path d="M3338 6925 c-2 -1 -52 -5 -113 -9 -60 -3 -121 -8 -135 -10 -14 -3
-50 -7 -81 -11 -31 -3 -67 -8 -80 -10 -13 -3 -41 -7 -64 -10 -22 -4 -56 -10
-75 -15 -19 -5 -48 -11 -65 -13 -16 -3 -59 -13 -95 -22 -36 -9 -69 -18 -75
-20 -234 -54 -590 -203 -845 -353 -193 -112 -388 -252 -534 -382 -188 -166
-347 -338 -488 -525 -37 -49 -71 -94 -76 -100 -13 -18 -129 -199 -155 -245
-47 -79 -184 -362 -221 -455 -109 -275 -186 -590 -220 -900 -19 -171 -14 -594
8 -761 85 -640 332 -1219 731 -1715 90 -112 118 -143 265 -289 477 -477 1083
-800 1755 -935 93 -18 199 -37 235 -40 36 -3 72 -8 80 -10 15 -5 135 -12 287
-19 l82 -4 162 159 c152 148 166 159 208 164 318 42 625 125 891 239 234 101
548 289 719 431 194 160 359 324 488 485 117 145 259 360 340 515 l68 131 108
-1 109 -1 66 45 c37 24 70 46 74 50 8 7 56 133 63 162 2 9 11 39 20 65 16 48
70 255 78 304 3 14 12 63 20 110 22 116 32 200 42 325 87 1122 -407 2230
-1308 2932 -353 276 -751 480 -1166 599 -159 46 -398 97 -506 108 -33 4 -73 9
-90 11 -100 14 -496 30 -507 20z m-28 -1214 c0 -710 -3 -900 -12 -903 -20 -6
-1426 -3 -1432 3 -9 9 90 321 151 474 62 157 105 248 177 380 27 50 54 99 60
110 34 61 158 236 226 317 186 222 383 372 603 459 57 23 182 58 210 58 16 1
17 -48 17 -898z m-980 652 c-286 -306 -555 -800 -704 -1293 -64 -212 -69 -232
-69 -246 0 -8 -3 -15 -6 -15 -27 -5 -944 -2 -947 3 -13 21 167 333 292 504
120 165 165 217 338 389 252 251 496 427 811 584 125 63 326 149 348 151 5 0
-24 -35 -63 -77z m1354 -136 c20 -37 59 -105 86 -151 28 -47 50 -87 50 -91 0
-3 11 -22 24 -43 13 -20 77 -134 144 -252 143 -257 156 -280 182 -326 288
-507 312 -552 303 -556 -5 -3 -199 -4 -433 -3 l-425 1 -1 759 c0 418 2 764 4
768 2 5 10 -2 17 -16 7 -13 29 -54 49 -90z m-2202 -1726 c3 0 3 -16 -2 -33 -8
-32 -16 -83 -26 -163 -3 -22 -9 -65 -14 -95 -5 -30 -12 -91 -16 -135 -4 -44
-8 -93 -10 -110 -22 -219 -22 -708 1 -935 2 -19 6 -71 10 -115 3 -44 8 -87 10
-95 4 -14 10 -55 19 -130 9 -72 27 -174 32 -182 3 -4 -1 -8 -8 -9 -47 -3 -999
-1 -1002 2 -2 2 -27 141 -55 309 -28 168 -53 316 -56 330 -12 62 -15 77 -19
110 -3 19 -12 76 -21 125 -16 89 -20 250 -10 355 20 202 31 274 66 440 24 111
88 323 99 330 7 4 980 5 1002 1z m1826 -999 c2 -798 0 -1002 -10 -1003 -15 -1
-1478 -1 -1494 0 -11 1 -37 119 -49 221 -3 25 -7 56 -10 70 -6 35 -24 215 -33
335 -9 133 -9 623 1 755 10 141 15 197 21 245 3 22 8 63 12 90 3 28 7 61 10
75 2 14 7 41 10 60 7 50 26 144 29 150 2 3 342 5 757 5 l753 -1 3 -1002z
m1338 999 c7 -1 99 -155 205 -343 292 -521 299 -532 309 -548 5 -8 21 -37 36
-65 l27 -50 -7 -185 c-6 -173 -12 -265 -21 -333 -2 -16 -1 -27 2 -24 6 7 250
411 298 494 l36 63 -5 143 c-5 137 -13 266 -21 352 -16 164 -21 206 -30 255
-2 14 -7 45 -10 70 -3 25 -9 72 -15 104 -5 33 -8 62 -5 64 9 9 140 9 159 -1
20 -10 84 -73 653 -638 l363 -361 -5 -116 c-9 -212 30 -153 -360 -541 l-344
-343 -391 -2 -391 -1 5 35 c3 19 10 58 15 86 5 28 13 73 16 100 3 27 7 60 10
74 12 78 15 144 7 135 -5 -5 -64 -102 -132 -215 -67 -113 -124 -207 -126 -209
-7 -7 -1294 -4 -1302 3 -7 7 -12 1970 -5 1991 2 7 180 9 511 9 279 -1 512 -2
518 -3z m-3087 -2341 c6 -19 27 -91 46 -159 151 -523 412 -1019 708 -1345 40
-43 74 -83 75 -88 2 -4 -19 0 -46 11 -448 177 -786 395 -1108 716 -202 201
-319 344 -452 556 -63 100 -182 319 -182 335 0 6 189 9 474 9 l474 1 11 -36z
m1751 -867 c0 -801 -2 -903 -15 -903 -9 0 -50 9 -92 21 -293 78 -571 286 -804
599 -130 176 -270 429 -363 658 -67 164 -181 514 -171 524 2 2 328 3 724 3
l721 0 0 -902z m1419 885 c-9 -16 -179 -299 -832 -1381 -136 -224 -242 -405
-237 -402 6 4 22 9 37 11 15 3 51 13 81 23 l54 19 -28 -28 c-25 -24 -38 -29
-89 -30 -33 -2 -69 -2 -80 -1 -20 1 -20 7 -21 899 0 493 3 899 7 902 4 3 257
5 562 5 526 0 555 -1 546 -17z m473 -378 c-394 -390 -497 -490 -474 -459 25
34 123 241 175 374 53 132 147 420 147 448 0 30 26 33 286 33 l266 -1 -400
-395z"/>
</g>
</svg>
